<?xml version="1.0" encoding="utf-8"?>
<!-- Generator: Adobe Illustrator 19.0.0, SVG Export Plug-In . SVG Version: 6.00 Build 0)  -->
<svg version="1.1" id="Capa_1" xmlns="http://www.w3.org/2000/svg" xmlns:xlink="http://www.w3.org/1999/xlink" x="0px" y="0px"
	 viewBox="-41 164.9 512 512" style="enable-background:new -41 164.9 512 512;" xml:space="preserve">
<style type="text/css">
	.st0{fill:#E81D25;}
</style>
<g>
	<path class="st0" d="M347.8,413.8l-187.7-128c-2.6-1.8-6-2-8.8-0.5c-2.8,1.5-4.5,4.4-4.5,7.5v256c0,3.2,1.7,6.1,4.5,7.5
		c1.2,0.7,2.6,1,4,1c1.7,0,3.4-0.5,4.8-1.5l187.7-128c2.3-1.6,3.7-4.2,3.7-7S350.1,415.4,347.8,413.8z M163.8,532.7V309l164.1,111.8
		L163.8,532.7z"/>
	<path class="st0" d="M215,164.9c-141.2,0-256,114.8-256,256s114.8,256,256,256s256-114.8,256-256S356.2,164.9,215,164.9z
		 M215,659.8c-131.7,0-238.9-107.2-238.9-238.9S83.3,182,215,182s238.9,107.2,238.9,238.9S346.7,659.8,215,659.8z"/>
</g>
</svg>
